PathFileType	4	(X/Y/Z)	/Users/itak/Documents/Research/Walk-IL/dataset/trc/00572_00009.trc
DataRate	CameraRate	NumFrames	NumMarkers	Units	OrigDataRate	OrigDataStartFrame	OrigNumFrames
100.000000	100.000000	4	53	mm	100.000000	384	513
Frame#	Time	RPSI			LPSI			L3			STRN			T10			C7			CLAV			RBAK			LBAK			LSHO			LUPA			LAEL			LAOL			LWTS			LWPS			LFRA			LIFD			LHPS			LHTS			RSHO			RUPA			RAEL			RAOL			RWTS			RWPS			RFRA			RHTS			RHPS			RBHD			LFHD			RFHD			LBHD			LHIP			RHIP			RASI			LASI			LKNE			LTHI			LANK			LTIP			LTOE			LMT1			LMT5			LHEE			RKNE			RTHI			RANK			RTIP			RTOE			RMT1			RMT5			RHEE			RIFD			
		X1	Y1	Z1	X2	Y2	Z2	X3	Y3	Z3	X4	Y4	Z4	X5	Y5	Z5	X6	Y6	Z6	X7	Y7	Z7	X8	Y8	Z8	X9	Y9	Z9	X10	Y10	Z10	X11	Y11	Z11	X12	Y12	Z12	X13	Y13	Z13	X14	Y14	Z14	X15	Y15	Z15	X16	Y16	Z16	X17	Y17	Z17	X18	Y18	Z18	X19	Y19	Z19	X20	Y20	Z20	X21	Y21	Z21	X22	Y22	Z22	X23	Y23	Z23	X24	Y24	Z24	X25	Y25	Z25	X26	Y26	Z26	X27	Y27	Z27	X28	Y28	Z28	X29	Y29	Z29	X30	Y30	Z30	X31	Y31	Z31	X32	Y32	Z32	X33	Y33	Z33	X34	Y34	Z34	X35	Y35	Z35	X36	Y36	Z36	X37	Y37	Z37	X38	Y38	Z38	X39	Y39	Z39	X40	Y40	Z40	X41	Y41	Z41	X42	Y42	Z42	X43	Y43	Z43	X44	Y44	Z44	X45	Y45	Z45	X46	Y46	Z46	X47	Y47	Z47	X48	Y48	Z48	X49	Y49	Z49	X50	Y50	Z50	X51	Y51	Z51	X52	Y52	Z52	X53	Y53	Z53	

385	3.84	290.0718383789062	1008.4755859375	974.07958984375	424.1390991210938	1016.030395507812	974.5387573242188	361.7811584472656	1107.882568359375	979.266845703125	377.7178649902344	1299.618530273438	1215.398559570312	367.0811767578125	1233.843139648438	971.7891845703125	362.9521789550781	1509.624877929688	1020.705932617188	379.5019836425781	1410.903564453125	1195.500122070312	271.8207397460938	1385.500610351562	955.3360595703125	452.0773315429688	1454.60791015625	982.1577758789062	539.610107421875	1478.209716796875	1074.984619140625	620.812744140625	1353.27490234375	1069.416381835938	662.468994140625	1140.772216796875	1115.912109375	596.2260131835938	1112.5185546875	1045.199829101562	660.9921875	928.7713012695312	1267.550659179688	720.0625	896.3125610351562	1211.76025390625	681.6915893554688	1062.69970703125	1153.16748046875	678.1275634765625	763.1904296875	1302.884765625	720.7837524414062	840.7254638671875	1236.500854492188	694.0003662109375	859.7514038085938	1296.632934570312	208.4658813476562	1476.72509765625	1086.821655273438	137.5397644042969	1414.434692382812	1070.6064453125	82.75881958007812	1128.120361328125	1052.329833984375	113.2179336547852	1110.715942382812	997.8410034179688	107.6753387451172	905.0086059570312	1185.173950195312	42.79328155517578	886.9463500976562	1135.507202148438	74.07807159423828	1072.3271484375	1060.521362304688	88.30171966552734	813.6597900390625	1210.48046875	43.29852294921875	812.75927734375	1151.48193359375	299.5966796875	1688.703491210938	1109.214233398438	443.3268737792969	1710.214721679688	1257.843872070312	299.4748229980469	1705.2880859375	1248.90966796875	464.8498840332031	1693.149047851562	1126.884521484375	558.1107177734375	944.4323120117188	1105.918334960938	171.2806549072266	940.0851440429688	1102.502685546875	228.0698547363281	976.777587890625	1186.730224609375	504.0391540527344	971.8838500976562	1182.210083007812	490.7994079589844	511.7799682617188	1211.957153320312	526.53076171875	672.9746704101562	1180.150756835938	470.5459594726562	32.57964706420898	1175.028076171875	486.1890869140625	257.1080932617188	1178.195190429688	415.7004699707031	47.22801208496094	1388.503295898438	378.7962036132812	53.32344818115234	1317.1591796875	486.7583618164062	39.12862777709961	1296.923828125	412.5844116210938	37.7112922668457	1109.446899414062	200.4604034423828	503.4015808105469	1192.1513671875	175.7659301757812	792.4798583984375	1159.826049804688	218.3839874267578	137.9769744873047	872.1792602539062	212.5171966552734	371.6023559570312	1125.761474609375	277.9302062988281	58.24006271362305	1059.808349609375	316.7086791992188	81.02473449707031	998.8685302734375	210.8292999267578	76.33621215820312	986.4465942382812	265.7096557617188	164.508544921875	818.9873657226562	100.9221038818359	731.523681640625	1189.16064453125	
386	3.85	290.7965698242188	1009.287902832031	977.1724243164062	424.8812561035156	1016.764282226562	977.6814575195312	362.7789306640625	1108.641723632812	982.4815673828125	378.5685119628906	1299.941772460938	1219.333984375	368.400390625	1234.616943359375	975.5907592773438	364.5951232910156	1510.300415039062	1024.948974609375	380.3625183105469	1411.211791992188	1199.641479492188	273.4540710449219	1386.431640625	959.1632690429688	453.7346496582031	1455.240112304688	986.7135620117188	540.9251098632812	1478.713134765625	1079.843139648438	622.136474609375	1353.80126953125	1074.855224609375	663.4608764648438	1141.532592773438	1122.56396484375	597.8387451171875	1112.833618164062	1051.429565429688	660.7388916015625	931.0662841796875	1276.143676757812	720.2014770507812	897.9852294921875	1221.13720703125	682.3848266601562	1063.812866210938	1160.619995117188	677.51025390625	765.927734375	1313.290649414062	720.73876953125	842.6681518554688	1246.385498046875	693.506591796875	862.3934326171875	1306.217407226562	209.888916015625	1477.532348632812	1090.58251953125	138.9022216796875	1415.232543945312	1074.15380859375	84.25180053710938	1128.921630859375	1055.759643554688	114.7201309204102	1111.353149414062	1001.29150390625	109.9235687255859	906.9514770507812	1190.252563476562	45.14396286010742	888.2100219726562	1140.72900390625	75.72708129882812	1073.091186523438	1064.235961914062	90.81013488769531	815.7631225585938	1216.373901367188	45.90493774414062	814.176025390625	1157.369384765625	301.2116088867188	1689.289184570312	1113.505737304688	444.4058837890625	1710.52734375	1262.692749023438	300.5264587402344	1705.7412109375	1253.264770507812	466.3594360351562	1693.54150390625	1131.803466796875	558.7099609375	944.6322631835938	1109.02978515625	171.9758148193359	941.03173828125	1105.675537109375	228.8629150390625	977.6094970703125	1189.863403320312	504.8385620117188	972.0390014648438	1185.1767578125	491.1434631347656	511.5083312988281	1212.403198242188	526.8311157226562	672.8163452148438	1181.741333007812	470.4869384765625	32.63476943969727	1175.030151367188	486.318115234375	256.9639282226562	1178.303344726562	415.7265625	47.19902420043945	1388.561889648438	378.8384094238281	53.29037094116211	1317.174926757812	486.7844543457031	39.1403923034668	1296.906372070312	412.4937438964844	37.7246208190918	1109.420043945312	201.4498901367188	504.8924255371094	1199.128540039062	176.1816711425781	793.6607055664062	1164.00732421875	217.8357543945312	132.9673767089844	886.4761962890625	213.1226959228516	371.9557800292969	1134.976318359375	277.8252563476562	58.8408203125	1076.477905273438	316.1559448242188	80.06989288330078	1014.827392578125	210.3755340576172	75.07740783691406	1002.647521972656	264.7540283203125	157.9738159179688	832.3134155273438	103.8237838745117	733.5347900390625	1195.799438476562	
387	3.86	291.4247741699219	1010.093505859375	980.2293701171875	425.53857421875	1017.455261230469	980.7254638671875	363.6744384765625	1109.374877929688	985.6309204101562	379.3888244628906	1300.215087890625	1223.186401367188	369.6593017578125	1235.344482421875	979.3164672851562	366.1808471679688	1510.930419921875	1029.112182617188	381.1752319335938	1411.476318359375	1203.702880859375	275.0135803222656	1387.314819335938	962.9282836914062	455.3385009765625	1455.836181640625	991.171875	542.1871948242188	1479.178833007812	1084.61962890625	623.3949584960938	1354.282348632812	1080.201049804688	664.3434448242188	1142.213623046875	1129.006103515625	599.3133544921875	1113.116333007812	1057.462768554688	660.3090209960938	933.236572265625	1284.440307617188	720.1316528320312	899.5581665039062	1230.2041015625	682.9301147460938	1064.832641601562	1167.834594726562	676.6207275390625	768.6173095703125	1323.341796875	720.4724731445312	844.5072631835938	1255.939208984375	692.8098754882812	864.9049682617188	1315.453002929688	211.2480926513672	1478.28173828125	1094.302124023438	140.2130126953125	1415.97998046875	1077.6630859375	85.67439270019531	1129.671997070312	1059.1416015625	116.1244659423828	1111.9443359375	1004.686645507812	112.198127746582	908.8966674804688	1195.308959960938	47.51177597045898	889.4523315429688	1145.980834960938	77.31041717529297	1073.814697265625	1067.919311523438	93.39607238769531	817.874267578125	1222.268310546875	48.55290222167969	815.5743408203125	1163.293090820312	302.7888488769531	1689.829956054688	1117.715576171875	445.4407348632812	1710.791748046875	1267.462768554688	301.5501708984375	1706.162353515625	1257.542602539062	467.8258361816406	1693.867919921875	1136.63427734375	559.2335205078125	944.77880859375	1112.028198242188	172.5902557373047	941.9720458984375	1108.831420898438	229.5959625244141	978.396484375	1192.9609375	505.5884399414062	972.1158447265625	1188.044189453125	491.4447937011719	511.2172241210938	1212.843383789062	527.0462036132812	672.6018676757812	1183.339233398438	470.4091186523438	32.70226287841797	1175.036987304688	486.4281005859375	256.8276062011719	1178.41552734375	415.7367248535156	47.15862655639648	1388.633911132812	378.8746643066406	53.24347686767578	1317.195190429688	486.8085021972656	39.15614700317383	1296.891235351562	412.3834533691406	37.74496078491211	1109.385864257812	202.5229187011719	506.3354797363281	1205.737915039062	176.5703430175781	794.7675170898438	1168.092041015625	217.3112182617188	127.5863876342773	900.9527587890625	213.7948150634766	372.20654296875	1143.953979492188	277.3629455566406	59.25567626953125	1093.45947265625	315.2929992675781	78.79507446289062	1031.150634765625	209.7168273925781	73.73348999023438	1019.017883300781	263.9559326171875	150.9935455322266	845.9946899414062	106.8189010620117	735.5761108398438	1202.440673828125	
388	3.87	291.9562377929688	1010.884887695312	983.2551879882812	426.1065979003906	1018.095458984375	983.6846923828125	364.4661254882812	1110.078735351562	988.7284545898438	380.1788635253906	1300.435668945312	1226.957641601562	370.8501281738281	1236.028442382812	982.9482421875	367.6968078613281	1511.512451171875	1033.20263671875	381.9468078613281	1411.698852539062	1207.68408203125	276.498046875	1388.142578125	966.6312255859375	456.8860778808594	1456.394897460938	995.525634765625	543.3977661132812	1479.598388671875	1089.308471679688	624.5806884765625	1354.705444335938	1085.447387695312	665.1268920898438	1142.806884765625	1135.23974609375	600.6634521484375	1113.353759765625	1063.297241210938	659.69921875	935.263427734375	1292.430053710938	719.8599853515625	901.0118408203125	1238.954833984375	683.3343505859375	1065.747680664062	1174.814208984375	675.4756469726562	771.2320556640625	1333.036254882812	719.9881591796875	846.2237548828125	1265.159912109375	691.9142456054688	867.2686157226562	1324.344116210938	212.5331726074219	1478.967651367188	1097.981201171875	141.46728515625	1416.670166015625	1081.136596679688	87.02178192138672	1130.360107421875	1062.479858398438	117.426399230957	1112.48193359375	1008.033569335938	114.4875411987305	910.828857421875	1200.330444335938	49.88194274902344	890.6585693359375	1151.243286132812	78.81835174560547	1074.489501953125	1071.575561523438	96.05310821533203	819.9859008789062	1228.145629882812	51.22639846801758	816.9443359375	1169.234252929688	304.3211669921875	1690.326171875	1121.85302734375	446.4380187988281	1711.006958007812	1272.150634765625	302.5549621582031	1706.551635742188	1261.748901367188	469.2481384277344	1694.130859375	1141.372314453125	559.709716796875	944.8778076171875	1114.875732421875	173.1101226806641	942.8980712890625	1111.978515625	230.2877044677734	979.1319580078125	1196.03076171875	506.2926025390625	972.1273193359375	1190.821411132812	491.7032470703125	510.9203796386719	1213.293090820312	527.181640625	672.3330688476562	1184.953979492188	470.3125915527344	32.78247833251953	1175.046752929688	486.5179748535156	256.70556640625	1178.536010742188	415.7308349609375	47.10771179199219	1388.7158203125	378.9032287597656	53.18471145629883	1317.219116210938	486.8289184570312	39.17435073852539	1296.87939453125	412.2581176757812	37.77396774291992	1109.342529296875	203.6536407470703	507.7322387695312	1211.94970703125	176.9324035644531	795.8048706054688	1172.081787109375	216.7920074462891	122.0101165771484	915.536865234375	214.4991455078125	372.3920288085938	1152.636352539062	276.3713073730469	59.54668045043945	1110.630004882812	314.0513000488281	77.21615600585938	1047.749145507812	208.7826995849609	72.39369201660156	1035.41162109375	263.3958740234375	143.6688385009766	859.9747924804688	109.89306640625	737.6395263671875	1209.082641601562	
